<?xml version="1.0" encoding="UTF-8"?>
<svg id="Layer_1" xmlns="http://www.w3.org/2000/svg" version="1.1" xmlns:xlink="http://www.w3.org/1999/xlink" viewBox="0 0 1080 1080">
  <!-- Generator: Adobe Illustrator 30.1.0, SVG Export Plug-In . SVG Version: 2.1.1 Build 136)  -->
  <defs>
    <style>
      .st0 {
        fill: url(#linear-gradient2);
      }

      .st1 {
        fill: url(#linear-gradient1);
      }

      .st2 {
        fill: url(#linear-gradient3);
      }

      .st3 {
        fill: url(#linear-gradient);
      }
    </style>
    <linearGradient id="linear-gradient" x1="156.24" y1="553.73" x2="879.22" y2="553.73" gradientUnits="userSpaceOnUse">
      <stop offset="0" stop-color="#c1272d"/>
      <stop offset="1" stop-color="#000"/>
    </linearGradient>
    <linearGradient id="linear-gradient1" x1="425.64" y1="540.18" x2="565.27" y2="540.18" gradientUnits="userSpaceOnUse">
      <stop offset="0" stop-color="#c1272d"/>
      <stop offset="1" stop-color="#000"/>
    </linearGradient>
    <linearGradient id="linear-gradient2" x1="178.51" y1="540" x2="901.49" y2="540" gradientUnits="userSpaceOnUse">
      <stop offset="0" stop-color="#333"/>
      <stop offset="1" stop-color="#666"/>
    </linearGradient>
    <linearGradient id="linear-gradient3" x1="447.91" y1="526.45" x2="587.55" y2="526.45" gradientUnits="userSpaceOnUse">
      <stop offset="0" stop-color="#333"/>
      <stop offset="1" stop-color="gray"/>
    </linearGradient>
  </defs>
  <g>
    <path class="st3" d="M607.62,874.31H231.64l17.63-146.04c5.79-48,42.14-83.75,85.05-83.65l34.54.08-12.94,107.12h251.7c59.14,0,141.41-55.77,141.41-110.66l21.64-164.71c-1.97-66.99-50.84-120.8-110.63-120.8h-374.29c-31.94,0-61.94-17.28-80.69-46.48l-48.81-76.02h503.79c120.86,0,219.19,111.02,219.19,247.49l-.62,9.23-15.8,165.9c-28.55,164.11-141.14,218.54-255.18,218.54Z"/>
    <rect class="st1" x="425.64" y="461.64" width="139.64" height="157.09" rx="14.55" ry="14.55"/>
  </g>
  <g>
    <path class="st0" d="M629.89,860.58H253.91l17.63-146.04c5.79-48,42.14-83.75,85.05-83.65l34.54.08-12.94,107.12h251.7c59.14,0,141.41-55.77,141.41-110.66l21.64-164.71c-1.97-66.99-50.84-120.8-110.63-120.8h-374.29c-31.94,0-61.94-17.28-80.69-46.48l-48.81-76.02h503.79c120.86,0,219.19,111.02,219.19,247.49l-.62,9.23-15.8,165.9c-28.55,164.11-141.14,218.54-255.18,218.54Z"/>
    <rect class="st2" x="447.91" y="447.91" width="139.64" height="157.09" rx="14.55" ry="14.55"/>
  </g>
</svg>